# xmcd
#
# Track frame offsets: 
#        150
#        17350
#        36312
#        56024
#        79664
#        100406
#        116179
#        132386
#        149198
#        166615
#
# Disc length: 2428 seconds
#
# Revision: 9
# Processed by: cddbd v1.5.2PL0 Copyright (c) Steve Scherf et al.
# Submitted via: ExactAudioCopyFreeDBPlugin 1.0
#
DISCID=89097a0a
DTITLE=Ashanti - Collectables By Ashanti
DYEAR=2005
DGENRE=R&B
TTITLE0=Still On It (Feat. Paul Wall and Method Man)
TTITLE1=Only U (Remix) (Feat. Caddillac Tah, Merce, Ja Rule and Black Ch
TTITLE1=ild)
TTITLE2=I Love You
TTITLE3=Rain On Me (Remix) (Feat. Ja Rule, Charli Baltimore and Hussein 
TTITLE3=Fatal)
TTITLE4=Still Down (Remix) (Feat. Caddillac Tah)
TTITLE5=Show You
TTITLE6=I Found It In You
TTITLE7=Breakup 2 Makeup (Remix) (Feat. Black Child)
TTITLE8=Rock With U (Awww Baby) (Remix)
TTITLE9=Focus (Remix) (Feat. Free)
EXTD=
EXTT0=Produced by Arizona Slim and Irv Gotti
EXTT1=Produced by 7 Aurelius and Irv Gotti
EXTT2=Produced by Jimi Kendrix and Irv Gotti
EXTT3=Produced by Chink Santana and Irv Gotti
EXTT4=Produced by Lil' Rob and Irv Gotti
EXTT5=Produced by Chink Santana and Irv Gotti
EXTT6=Produced by FULL FORCE and Irv Gotti
EXTT7=Produced by Irv Gotti and Chink Santana
EXTT8=Produced by Chink Santana and Irv Gotti
EXTT9=Produced by 7 Aurelius and Irv Gotti
PLAYORDER=
